<?xml version="1.0" standalone="no"?>
<!DOCTYPE svg PUBLIC "-//W3C//DTD SVG 20010904//EN"
 "http://www.w3.org/TR/2001/REC-SVG-20010904/DTD/svg10.dtd">
<svg version="1.0" xmlns="http://www.w3.org/2000/svg"
 width="1115.000000pt" height="1115.000000pt" viewBox="0 0 1115.000000 1115.000000"
 preserveAspectRatio="xMidYMid meet">
<metadata>
Created by potrace 1.11, written by Peter Selinger 2001-2013
</metadata>
<g transform="translate(0.000000,1115.000000) scale(0.100000,-0.100000)"
fill="#000000" stroke="none">
<path d="M0 5575 l0 -5575 5575 0 5575 0 0 5575 0 5575 -5575 0 -5575 0 0
-5575z m5626 3452 c27 -77 28 -85 14 -110 -19 -35 -9 -42 68 -51 30 -4 69 -13
86 -20 17 -8 63 -21 103 -30 94 -20 159 -54 210 -109 36 -39 46 -45 96 -50 72
-7 135 -35 180 -81 59 -59 72 -91 72 -181 -1 -91 -20 -143 -82 -214 l-35 -41
-28 39 c-16 21 -33 42 -39 45 -6 4 11 27 39 54 56 54 70 100 51 164 -21 69
-121 158 -179 158 -16 0 -20 -10 -25 -68 -3 -38 -21 -115 -40 -171 l-34 -103
-59 -24 c-32 -13 -59 -24 -60 -24 -1 0 -1 -13 0 -30 1 -23 6 -30 21 -30 11 0
27 -5 35 -10 11 -7 4 -10 -27 -10 -48 0 -60 -11 -37 -35 29 -28 63 -36 105
-25 33 9 39 14 34 31 -4 12 -1 21 10 25 22 9 31 -4 18 -25 -6 -10 -8 -22 -5
-28 14 -21 54 -34 83 -28 33 8 36 3 12 -29 -16 -21 -19 -22 -82 -10 -244 46
-854 46 -1078 0 -55 -11 -65 -11 -76 3 -29 34 -27 38 18 37 30 -1 50 5 62 16
16 17 16 18 -1 31 -21 15 -14 37 10 37 10 0 14 -8 12 -22 -2 -19 4 -25 39 -36
38 -12 47 -12 80 5 50 24 50 47 0 51 -39 3 -42 22 -3 22 18 0 23 5 23 30 0 26
-6 32 -64 56 -45 20 -63 32 -63 46 0 10 -11 45 -25 77 -13 32 -30 100 -36 150
-11 78 -15 91 -31 91 -28 0 -89 -34 -120 -67 -30 -32 -68 -108 -68 -138 0 -39
39 -104 79 -133 29 -21 37 -31 26 -35 -8 -4 -27 -24 -44 -47 l-29 -41 -36 44
c-57 70 -80 131 -80 212 0 84 21 131 87 192 47 44 122 73 185 73 28 0 42 8 75
45 50 57 115 91 221 114 45 10 91 23 101 28 11 6 45 14 75 18 30 4 63 11 72
17 17 8 17 10 1 34 -16 25 -15 30 13 110 16 46 32 84 35 84 4 0 19 -37 35 -83z
m-2161 -236 l90 -7 -95 -8 c-127 -10 -291 -34 -365 -52 -255 -63 -437 -173
-522 -315 -94 -157 -81 -389 35 -627 55 -113 148 -198 527 -487 691 -526 955
-880 956 -1283 1 -83 -16 -232 -26 -232 -2 0 -1 53 2 118 12 273 -72 498 -256
683 -97 97 -166 146 -296 211 -128 65 -376 148 -440 148 -12 0 0 -32 55 -137
60 -116 66 -132 40 -103 -18 19 -84 92 -146 162 -300 333 -607 538 -808 538
-78 0 -111 -11 -154 -53 -84 -81 -77 -248 18 -402 25 -41 5 -24 -107 90 -161
164 -244 230 -368 291 -170 84 -322 95 -444 32 -75 -39 -119 -88 -136 -155
-14 -53 -10 -57 -44 30 -20 49 -71 105 -117 128 -109 52 -255 12 -383 -106
-135 -126 -210 -269 -247 -473 l-14 -77 5 110 c9 239 106 481 294 733 85 114
338 365 471 468 292 226 653 440 913 542 459 180 1065 270 1562 233z m4925
-16 c365 -44 717 -135 1004 -261 209 -91 574 -315 795 -488 124 -96 337 -300
426 -406 228 -274 358 -581 354 -839 l-2 -86 -8 70 c-38 301 -249 571 -479
615 -119 23 -225 -41 -275 -165 -23 -58 -24 -58 -31 -30 -47 198 -286 270
-542 163 -125 -52 -216 -120 -391 -292 -121 -118 -155 -148 -131 -112 55 81
73 140 74 236 1 75 -2 90 -26 132 -62 105 -211 118 -393 35 -188 -87 -446
-306 -678 -577 -49 -58 -92 -107 -95 -110 -2 -3 28 59 67 137 39 79 71 145 71
147 0 2 -35 -5 -77 -15 -450 -113 -742 -330 -867 -643 -46 -114 -60 -197 -60
-355 0 -106 -3 -136 -10 -115 -5 16 -9 99 -10 184 0 141 3 163 28 245 58 190
172 367 366 568 142 147 265 256 460 407 74 57 202 156 285 219 215 167 293
247 343 351 145 305 125 551 -57 723 -162 153 -387 227 -806 264 l-90 8 80 6
c131 11 530 1 675 -16z m-5294 -260 c111 -18 210 -48 288 -87 32 -16 60 -27
63 -24 3 3 -4 22 -16 42 l-22 36 38 -7 c133 -24 233 -88 276 -174 27 -56 88
-121 112 -121 16 0 17 7 12 60 l-5 60 45 -37 c71 -59 100 -109 121 -212 10
-50 17 -91 16 -91 0 0 -50 23 -109 51 -207 96 -442 163 -669 190 -180 21 -528
1 -660 -38 -17 -5 -18 -1 -11 48 9 72 41 164 73 217 l27 44 100 -5 c65 -3 126
-12 174 -27 60 -19 83 -21 120 -14 25 5 45 14 44 19 -2 6 -30 27 -65 48 -34
20 -57 37 -52 37 5 0 50 -7 100 -15z m5056 -22 c-35 -21 -63 -42 -65 -48 -1
-5 19 -14 44 -19 37 -7 60 -5 120 14 48 15 109 24 174 27 l100 5 27 -44 c32
-53 64 -145 73 -217 7 -49 6 -53 -11 -48 -132 39 -480 59 -660 38 -227 -27
-465 -94 -668 -190 -60 -28 -110 -51 -110 -51 -1 0 6 42 16 93 21 104 46 146
119 208 l47 39 -5 -60 c-5 -53 -4 -60 12 -60 24 0 80 61 109 119 45 88 146
152 279 176 l38 7 -22 -36 c-12 -20 -19 -39 -16 -42 3 -3 31 8 64 24 73 37
178 70 280 87 118 20 122 18 55 -22z m-4014 -502 c24 -33 79 -89 123 -126 75
-63 98 -98 86 -128 -3 -8 27 -43 74 -86 52 -48 79 -80 79 -94 0 -12 7 -40 14
-62 8 -22 17 -58 21 -80 l8 -40 -24 22 c-38 35 -93 53 -160 53 -53 0 -60 2
-49 15 11 13 8 15 -18 15 -30 0 -31 1 -25 35 5 30 -11 95 -24 95 -2 0 -13 -5
-24 -11 -18 -9 -19 -7 -14 14 5 20 2 26 -22 35 -15 5 -37 13 -48 17 -16 7 -18
6 -7 -6 16 -18 15 -72 -3 -115 -16 -38 -13 -54 10 -54 10 0 12 -9 8 -35 -5
-30 -3 -34 11 -29 12 4 16 0 16 -15 0 -16 6 -21 26 -21 23 0 25 -2 13 -16 -12
-15 -10 -16 21 -10 40 8 31 -1 -34 -36 -45 -23 -102 -20 -163 8 l-35 17 31 13
c41 17 50 56 25 103 -15 27 -41 47 -119 88 -55 30 -115 69 -134 88 l-35 34 52
-15 c43 -13 56 -13 79 -2 96 46 25 184 -170 328 -44 33 -75 60 -68 60 49 0
308 -113 397 -174 21 -14 40 -24 42 -21 3 2 -5 39 -16 82 -17 64 -43 215 -42
241 1 4 13 -23 28 -61 15 -37 46 -94 70 -126z m3007 117 c-4 -35 -18 -105 -31
-156 -13 -51 -24 -95 -24 -98 0 -3 19 7 43 21 121 74 370 183 398 173 5 -2
-28 -30 -72 -63 -151 -111 -226 -219 -199 -284 17 -43 59 -57 114 -39 36 12
43 12 39 1 -6 -16 -118 -91 -189 -126 -108 -54 -138 -140 -61 -172 l31 -13
-35 -17 c-19 -10 -58 -18 -89 -19 -44 -1 -64 5 -100 27 l-45 28 35 -7 c31 -6
33 -5 21 10 -12 14 -10 16 13 16 20 0 26 5 26 21 0 14 5 19 14 16 21 -8 25 1
16 34 -7 25 -6 29 11 29 23 0 23 0 2 67 -13 43 -15 60 -6 84 13 35 13 35 -37
9 -29 -15 -38 -24 -33 -37 5 -13 2 -15 -19 -10 -23 6 -28 3 -37 -25 -14 -40
-14 -71 1 -86 9 -9 3 -12 -27 -12 -37 -1 -39 -2 -21 -15 18 -14 15 -15 -40
-15 -80 0 -132 -16 -167 -51 l-29 -29 7 42 c4 24 13 58 21 77 8 18 14 46 14
61 0 22 16 43 78 98 71 64 78 74 78 108 0 28 7 42 30 61 154 130 216 205 251
304 10 27 19 49 21 49 2 0 1 -28 -3 -62z m-3907 41 c115 -12 200 -33 256 -61
127 -65 287 -209 339 -306 l29 -53 -79 63 c-43 35 -105 78 -139 95 -81 43
-251 99 -344 114 -153 23 -332 -4 -502 -77 -46 -19 -89 -38 -96 -41 -10 -4
-12 3 -6 32 9 47 -7 59 -55 39 -19 -8 -38 -11 -42 -7 -12 12 -33 147 -26 165
5 15 73 31 177 41 82 9 399 6 488 -4z m5317 -11 c52 -11 60 -16 64 -38 5 -35
-19 -160 -30 -160 -6 0 -24 7 -40 16 -42 21 -63 4 -54 -43 l6 -34 -38 17
c-245 107 -412 135 -600 99 -183 -35 -348 -112 -485 -226 -21 -17 -38 -26 -38
-21 0 24 112 162 175 215 143 120 242 163 431 187 100 13 536 4 609 -12z
m-3641 -30 c12 -16 18 -19 22 -10 3 6 15 12 25 12 19 0 19 -1 2 -25 -20 -27
-53 -33 -53 -10 0 9 -14 22 -31 29 -21 9 -27 15 -18 19 26 10 37 7 53 -15z
m1411 12 c3 -5 -1 -10 -9 -10 -9 0 -23 -11 -32 -25 -9 -14 -21 -25 -27 -25 -5
0 -20 11 -33 25 -21 23 -22 25 -4 25 10 0 22 -4 25 -10 9 -15 25 -12 25 4 0
22 43 35 55 16z m-310 -130 c141 -12 165 -17 165 -31 0 -8 -20 -9 -62 -5 -145
14 -759 19 -933 7 -119 -9 -181 -9 -187 -3 -13 13 27 21 153 31 141 12 727 12
864 1z m-587 -69 c5 -32 -23 -54 -49 -40 -19 10 -26 49 -12 63 4 4 19 6 33 4
18 -2 26 -10 28 -27z m242 1 l44 -19 -64 -16 c-61 -15 -69 -15 -130 2 l-64 18
59 21 c66 23 89 23 155 -6z m140 13 c14 -17 5 -51 -16 -59 -20 -8 -54 11 -54
29 0 43 43 62 70 30z m-546 -13 l60 -18 -62 -23 c-57 -20 -68 -21 -117 -10
-30 7 -55 15 -55 19 0 8 81 49 100 49 8 1 42 -7 74 -17z m774 -3 c29 -12 50
-25 47 -29 -2 -3 -28 -12 -58 -19 -49 -11 -60 -10 -113 11 l-59 22 55 17 c71
23 68 23 128 -2z m-983 -34 c0 -13 -8 -21 -22 -23 -19 -3 -23 1 -23 23 0 22 4
26 23 23 14 -2 22 -10 22 -23z m1110 0 c0 -13 -8 -21 -22 -23 -19 -3 -23 1
-23 23 0 22 4 26 23 23 14 -2 22 -10 22 -23z m-160 -46 c66 -6 121 -12 123
-13 1 -2 -3 -16 -10 -31 -12 -26 -14 -27 -73 -21 -140 14 -647 18 -806 7 -153
-12 -164 -11 -176 5 -25 34 -15 42 60 49 241 25 617 26 882 4z m-245 -124
c413 -118 877 -343 1163 -562 l58 -45 -4 -662 c-4 -672 -8 -744 -48 -946 -75
-386 -304 -692 -719 -963 -63 -41 -227 -140 -365 -220 -224 -130 -252 -144
-270 -132 -11 7 -124 72 -250 145 -390 225 -529 323 -695 489 -117 118 -187
214 -253 346 -74 150 -109 273 -139 484 -19 132 -21 209 -25 803 l-4 657 86
64 c265 196 684 402 1050 516 259 80 231 78 415 26z m-3583 -524 c97 -148 306
-297 603 -431 416 -188 713 -366 882 -528 159 -153 226 -271 235 -417 10 -147
-47 -285 -173 -423 -114 -125 -315 -202 -523 -202 -95 0 -176 17 -339 71 -130
44 -239 57 -287 35 -42 -20 14 30 68 60 47 26 61 29 147 29 77 0 113 -6 190
-30 83 -26 109 -30 210 -29 98 0 126 4 193 27 203 70 305 193 295 357 -3 55
-11 83 -45 151 -54 107 -123 184 -226 253 -154 103 -334 156 -527 156 -58 0
-136 -7 -175 -15 -109 -24 -203 -29 -282 -16 -74 13 -178 56 -201 84 -12 14
-8 14 40 1 56 -15 160 -18 192 -5 15 6 3 12 -48 25 -93 23 -179 59 -228 96
l-42 30 56 0 c107 0 114 17 26 59 -111 52 -166 52 -193 0 -9 -16 -22 -29 -31
-29 -8 0 -40 20 -71 45 -67 55 -100 66 -120 39 -8 -10 -13 -34 -11 -51 2 -18
2 -33 1 -33 -9 0 -43 87 -43 108 0 40 42 72 95 72 47 0 105 -22 105 -40 0 -6
4 -10 9 -10 16 0 -7 64 -30 83 -25 20 -89 23 -108 5 -11 -11 -12 -8 -7 17 21
92 145 85 187 -11 21 -45 51 -59 63 -28 16 41 -49 105 -194 194 -108 66 -126
83 -183 178 -56 95 -97 148 -139 179 -40 29 -31 29 64 -3 106 -35 171 -80 328
-229 118 -111 214 -193 259 -220 8 -4 0 12 -16 36 -40 58 -86 152 -106 214
-38 121 -33 196 16 252 l32 36 7 -43 c4 -24 24 -69 45 -99z m6945 71 c40 -90
0 -259 -96 -405 -24 -37 -41 -67 -38 -67 15 1 164 127 283 240 145 137 192
171 281 204 118 44 124 43 67 -11 -28 -26 -71 -82 -95 -123 -56 -98 -105 -154
-162 -187 -150 -86 -232 -158 -232 -205 0 -46 35 -37 60 15 36 77 127 104 169
51 31 -40 27 -54 -13 -47 -19 3 -46 3 -60 -1 -26 -6 -56 -51 -56 -81 0 -14 6
-12 31 9 25 21 41 26 85 26 88 0 117 -51 77 -138 l-17 -37 -4 37 c-7 73 -48
74 -134 3 -30 -25 -62 -45 -71 -45 -9 0 -23 13 -32 29 -18 35 -44 45 -92 36
-39 -7 -163 -65 -163 -76 0 -11 41 -19 95 -19 l50 0 -25 -21 c-52 -42 -138
-78 -259 -109 -33 -9 -41 -14 -30 -21 22 -14 141 -11 194 6 27 8 50 13 52 11
8 -7 -84 -59 -135 -77 -93 -32 -199 -35 -336 -9 -98 19 -140 22 -245 17 -156
-6 -251 -30 -386 -97 -161 -79 -263 -177 -333 -320 -33 -68 -36 -83 -37 -160
0 -76 3 -91 30 -139 59 -106 188 -187 346 -217 106 -21 204 -14 319 21 176 54
308 42 393 -37 l42 -39 -34 17 c-51 24 -132 14 -296 -39 -190 -61 -246 -71
-368 -64 -117 7 -220 33 -327 84 -121 58 -232 186 -298 345 -36 86 -37 234 -4
319 71 181 253 361 538 535 97 59 301 162 665 337 292 140 539 362 539 485 0
30 2 32 21 21 11 -6 30 -31 41 -57z m-1985 -1504 c-3 -8 -6 -5 -6 6 -1 11 2
17 5 13 3 -3 4 -12 1 -19z m-4272 -566 c99 -22 216 -45 259 -51 44 -6 82 -13
84 -16 12 -12 -371 -4 -463 10 -225 31 -391 28 -482 -10 -18 -8 -33 -12 -33
-9 0 11 126 84 172 100 119 39 196 35 463 -24z m5976 1 c47 -23 93 -51 102
-61 17 -19 16 -19 -36 -1 -29 10 -94 21 -143 25 -83 6 -131 2 -354 -26 -96
-12 -450 -10 -385 3 160 30 316 62 405 82 82 19 129 24 216 22 108 -2 113 -3
195 -44z m-6180 -112 c28 -6 18 -8 -51 -14 -233 -17 -464 -138 -534 -279 l-26
-52 0 42 c0 71 37 151 95 208 58 57 125 88 227 103 64 10 227 5 289 -8z m6145
9 c115 -15 181 -44 245 -109 61 -62 83 -112 93 -211 l6 -55 -16 40 c-69 166
-294 293 -552 312 -45 3 -81 8 -78 10 4 4 146 20 196 21 19 1 67 -3 106 -8z
m-6386 -152 c-112 -147 -108 -314 11 -443 98 -106 288 -156 396 -104 184 89
113 341 -96 341 -70 0 -99 -12 -150 -57 -58 -53 -73 -115 -45 -190 6 -18 4
-17 -19 4 -85 77 -29 232 105 292 42 18 75 24 163 27 61 2 128 -1 150 -6 l40
-10 -50 -1 c-76 -2 -87 -15 -34 -41 79 -40 131 -105 150 -188 7 -31 6 -32 -10
-18 -16 14 -18 11 -30 -46 -11 -52 -19 -68 -65 -113 -42 -43 -67 -58 -122 -76
-183 -59 -497 5 -613 125 l-32 33 58 -28 c32 -16 74 -32 93 -35 34 -6 34 -5
-16 25 -64 37 -128 109 -150 167 -9 24 -20 44 -23 44 -4 0 -14 -12 -24 -27
l-18 -28 4 61 c11 141 97 243 266 315 99 43 108 39 61 -23z m6455 7 c142 -68
219 -167 231 -295 l5 -65 -18 28 c-10 15 -20 27 -24 27 -3 0 -14 -20 -23 -44
-22 -58 -86 -130 -150 -167 -50 -30 -50 -31 -16 -25 19 3 61 19 93 35 l58 28
-32 -33 c-116 -120 -430 -184 -613 -125 -55 18 -80 33 -122 76 -46 45 -54 61
-65 113 -12 59 -14 61 -32 45 -18 -17 -18 -16 -11 12 20 86 75 156 152 196 52
26 42 38 -33 40 l-50 1 40 10 c22 5 90 8 150 6 88 -3 121 -9 163 -27 132 -59
189 -214 107 -291 -28 -26 -30 -24 -14 17 27 70 -24 168 -107 208 -51 24 -141
22 -191 -4 -188 -96 -114 -341 104 -341 105 0 228 54 297 131 114 125 116 292
5 438 l-41 54 33 -7 c18 -3 65 -22 104 -41z m-5013 -515 c103 -25 241 -26 381
-4 188 31 382 20 485 -27 l47 -21 -40 -15 c-22 -8 -95 -18 -161 -22 -80 -4
-128 -12 -139 -21 -27 -22 -40 -57 -80 -211 l-37 -146 -105 -6 c-136 -8 -295
7 -416 37 -146 37 -145 31 -31 121 54 43 105 83 112 90 11 10 2 33 -48 129
-34 64 -59 116 -57 116 3 0 43 -9 89 -20z m2968 -5 c136 -21 278 -19 378 5 46
11 86 20 89 20 2 0 -23 -53 -57 -117 l-62 -117 28 -23 c16 -13 66 -51 111 -86
45 -34 82 -65 83 -69 0 -7 -66 -30 -156 -52 -88 -23 -266 -36 -387 -29 l-105
6 -37 146 c-40 154 -53 189 -80 211 -11 9 -59 17 -139 21 -66 4 -139 14 -161
22 l-40 14 30 15 c112 57 278 67 505 33z m-2095 -180 c-15 -54 -18 -57 -43
-52 -46 9 -140 47 -163 66 -22 18 -20 18 72 24 52 3 105 10 119 15 14 5 27 8
28 7 2 -2 -4 -29 -13 -60z m1765 35 l65 -1 -23 -19 c-24 -19 -116 -57 -164
-67 -25 -5 -28 -2 -42 48 -9 29 -16 56 -16 60 0 3 26 0 58 -7 31 -8 86 -14
122 -14z m-3837 -97 c84 -94 282 -201 486 -263 111 -33 106 -39 -9 -10 -227
58 -399 141 -507 245 -40 39 -73 76 -73 82 0 24 64 -10 103 -54z m1944 -23
c31 -11 87 -27 124 -35 219 -46 1388 -46 1607 0 95 20 173 50 232 91 27 19 50
33 50 30 0 -2 22 -91 50 -197 27 -107 50 -202 50 -211 0 -10 -9 -27 -20 -38
-11 -11 -20 -22 -20 -25 0 -3 707 -5 1570 -5 1563 0 1570 0 1570 -20 0 -20 -7
-20 -1620 -20 l-1620 0 -95 -25 c-174 -45 -350 -65 -660 -75 -548 -18 -985 9
-1240 75 l-95 25 -1545 0 c-1538 0 -1545 0 -1545 20 0 20 7 20 1495 20 822 0
1495 2 1495 5 0 3 -9 14 -20 25 -11 11 -20 28 -20 38 0 9 23 104 50 211 28
106 50 195 50 197 0 3 23 -11 50 -30 28 -19 76 -44 107 -56z m4027 78 c-45
-76 -138 -151 -269 -215 -99 -48 -308 -119 -376 -128 -36 -4 -31 -2 26 15 216
65 390 155 494 257 36 35 79 68 96 72 16 5 31 10 33 10 2 1 0 -5 -4 -11z
m-5301 -359 l42 -20 -55 5 c-30 3 -71 6 -90 7 -31 1 -32 2 -10 8 20 6 25 13
24 38 l-2 30 24 -24 c13 -13 43 -33 67 -44z m4614 34 c-2 -21 4 -28 23 -34 22
-6 21 -7 -10 -8 -19 -1 -60 -4 -90 -7 l-55 -6 50 25 c28 13 56 31 64 40 18 23
20 22 18 -10z m-5044 -442 c66 -17 68 -17 78 1 6 11 18 18 27 16 13 -2 20 -22
29 -83 16 -112 16 -135 -2 -135 -8 0 -26 18 -40 39 -74 119 -216 174 -305 120
-48 -29 -59 -48 -60 -92 0 -56 38 -88 147 -121 215 -66 274 -100 312 -181 54
-114 4 -242 -120 -310 -47 -25 -67 -30 -149 -33 -81 -3 -107 0 -175 22 l-80
26 -26 -32 c-19 -23 -28 -28 -34 -18 -15 24 -30 259 -17 272 8 8 16 3 29 -22
74 -137 168 -210 268 -210 135 0 221 124 143 207 -31 34 -58 46 -204 97 -74
26 -141 57 -162 74 -78 62 -102 163 -61 249 55 114 222 161 402 114z m901 0
c62 -15 95 -32 127 -68 40 -42 49 -66 49 -125 0 -145 -132 -218 -396 -218
l-74 0 0 -139 c0 -124 2 -141 20 -164 15 -19 32 -27 63 -29 29 -2 42 -8 42
-18 0 -12 -33 -14 -210 -14 -121 1 -209 5 -208 10 0 5 18 15 40 22 71 24 68 9
71 357 l3 315 -25 25 c-16 16 -36 25 -56 25 -33 0 -43 26 -13 32 49 9 523 0
567 -11z m2450 -6 c3 -11 8 -59 12 -107 6 -77 5 -88 -9 -88 -9 0 -29 19 -45
43 -62 88 -104 111 -228 121 l-81 7 -6 -38 c-10 -56 -8 -412 3 -527 10 -116
17 -127 96 -141 115 -21 56 -30 -191 -30 -155 0 -246 4 -247 10 -2 6 15 12 37
16 50 7 81 23 97 52 24 42 20 629 -5 653 -3 3 -45 2 -94 -4 -106 -11 -150 -35
-202 -112 -59 -87 -73 -61 -50 92 l11 73 448 0 c441 0 449 0 454 -20z m-1713
0 c0 -5 -24 -15 -52 -21 -29 -7 -58 -20 -65 -29 -20 -26 -26 -141 -22 -401 2
-186 6 -245 17 -257 10 -13 31 -17 95 -17 96 0 139 11 195 48 36 24 58 50 135
157 10 14 17 17 25 9 9 -8 6 -40 -9 -120 -12 -60 -23 -116 -25 -124 -4 -13
-54 -15 -377 -13 -252 1 -374 5 -376 12 -2 5 9 13 25 16 15 4 42 13 60 20 50
22 54 57 51 369 l-3 274 -24 26 c-15 16 -41 29 -63 32 -23 4 -38 12 -38 20 0
12 38 14 225 12 136 -2 225 -7 226 -13z m2269 -288 c49 -24 73 -44 97 -79 85
-128 28 -300 -125 -375 -51 -25 -68 -28 -152 -28 -82 1 -102 4 -145 27 -100
52 -144 121 -145 226 0 34 7 79 15 100 18 42 77 107 117 128 102 53 234 54
338 1z m1214 12 c3 -17 6 -43 6 -58 0 -25 1 -25 26 11 55 76 164 99 220 47 54
-50 8 -150 -60 -133 -16 4 -38 22 -53 45 -14 22 -33 39 -43 39 -23 0 -49 -31
-66 -77 -16 -46 -19 -285 -4 -314 7 -13 21 -19 45 -19 31 0 54 -14 42 -27 -4
-3 -246 -6 -329 -3 -5 0 -8 7 -8 15 0 10 10 15 29 15 16 0 33 6 39 13 16 20
25 152 17 274 -8 126 -20 153 -70 153 -15 0 -25 6 -25 14 0 14 21 18 165 29
22 2 45 4 51 5 6 1 14 -12 18 -29z m667 11 c57 -19 63 -20 79 -5 24 22 29 11
37 -79 7 -94 -8 -101 -55 -26 -17 27 -46 59 -64 70 -62 38 -168 19 -168 -30 0
-27 50 -61 163 -110 105 -46 142 -78 153 -135 14 -74 -51 -162 -138 -186 -55
-14 -152 -7 -200 17 -36 17 -38 17 -57 0 -32 -29 -41 -11 -41 85 0 109 11 114
64 30 47 -77 88 -103 157 -99 43 2 55 8 73 31 33 45 11 72 -117 137 -131 68
-157 92 -164 152 -9 75 27 122 115 154 52 19 94 17 163 -6z m-1411 -195 c3
-133 9 -207 17 -222 37 -64 149 -27 182 59 11 30 18 304 8 314 -3 4 -21 9 -38
13 -18 4 -34 11 -36 17 -4 11 203 27 220 17 4 -2 7 -105 7 -228 l0 -225 36
-15 c57 -24 31 -35 -82 -35 l-104 0 0 42 0 42 -27 -26 c-51 -47 -93 -62 -170
-63 -57 0 -77 4 -100 21 -51 38 -58 64 -63 258 -5 188 -5 185 -52 200 -10 3
-18 10 -18 15 0 9 122 19 195 17 19 -1 20 -10 25 -201z m1520 -430 c0 -13
-356 -15 -3140 -15 -2784 0 -3140 2 -3140 15 0 13 356 15 3140 15 2784 0 3140
-2 3140 -15z m-5781 -131 c-8 -10 -5 -21 11 -44 25 -35 36 -35 63 3 16 21 18
29 8 41 -11 13 -6 15 29 14 l42 0 -26 -22 c-49 -40 -76 -87 -76 -132 0 -30 5
-46 18 -53 13 -8 3 -10 -43 -10 -46 0 -56 2 -42 10 40 23 6 123 -64 188 -19
18 -19 18 36 18 44 0 53 -2 44 -13z m999 -1 c5 -17 -26 -29 -40 -15 -6 6 -7
15 -3 22 9 14 37 9 43 -7z m122 -83 c0 -84 3 -101 18 -109 13 -8 4 -10 -38
-10 -30 1 -47 3 -37 6 15 4 17 17 17 99 0 56 -4 94 -10 94 -5 0 -10 5 -10 10
0 6 14 10 30 10 l30 0 0 -100z m120 0 c0 -84 3 -101 18 -109 13 -8 4 -10 -38
-10 -42 0 -51 2 -37 10 14 8 17 25 17 95 0 66 -3 86 -15 90 -23 9 -7 24 26 24
l29 0 0 -100z m220 0 c0 -84 3 -101 18 -109 13 -8 4 -10 -38 -10 -30 1 -47 3
-37 6 15 4 17 17 17 99 0 56 -4 94 -10 94 -5 0 -10 5 -10 10 0 6 14 10 30 10
l30 0 0 -100z m1041 48 c1 -29 1 -75 -1 -102 -1 -32 3 -51 11 -57 9 -6 -4 -9
-36 -9 -35 0 -46 3 -35 10 11 7 16 33 19 96 3 75 1 89 -15 101 -16 12 -14 13
19 13 l37 0 1 -52z m1721 -19 l3 -71 25 21 c21 17 23 22 10 31 -11 7 -5 10 25
10 l40 -1 -28 -17 c-15 -9 -26 -19 -24 -22 2 -3 12 -24 22 -47 10 -23 25 -44
34 -46 9 -3 0 -5 -20 -6 -31 -1 -37 3 -50 31 -19 43 -39 48 -39 10 0 -17 6
-33 13 -35 6 -3 -8 -6 -32 -6 -35 -1 -42 2 -33 11 15 15 17 188 2 188 -5 0
-10 5 -10 10 0 6 13 10 30 10 l29 0 3 -71z m1067 62 c13 -9 11 -58 -6 -129 -8
-34 -21 -10 -29 55 -9 74 1 95 35 74z m-1371 -72 l27 -1 -27 -11 c-24 -9 -28
-16 -28 -53 0 -43 20 -72 41 -58 8 4 9 3 5 -4 -9 -16 -59 -15 -74 0 -7 7 -12
33 -12 59 0 28 -5 50 -12 53 -10 5 -10 7 1 12 7 4 21 15 30 26 16 19 16 19 19
-2 2 -14 11 -20 30 -21z m-3620 -15 c32 -22 30 -76 -4 -103 -56 -44 -137 -15
-137 49 0 22 7 39 22 52 28 22 89 24 119 2z m112 -31 c0 -56 10 -76 36 -71 15
2 20 14 22 52 2 33 -1 52 -10 57 -8 6 -2 9 20 9 l32 0 0 -58 c0 -32 5 -63 12
-70 9 -9 5 -12 -20 -12 -18 0 -32 5 -32 12 0 9 -3 9 -12 0 -16 -16 -65 -15
-75 1 -4 6 -10 38 -13 70 -5 54 -5 57 17 57 21 0 23 -5 23 -47z m324 33 c-3
-8 2 -29 11 -47 13 -24 19 -29 26 -18 12 20 11 53 -3 67 -9 9 -2 12 33 12 28
0 39 -3 31 -9 -12 -7 -11 -14 3 -41 19 -38 37 -29 39 19 1 26 5 31 25 31 21 0
23 -2 9 -12 -8 -7 -25 -39 -38 -70 -12 -32 -25 -58 -29 -58 -4 0 -16 19 -28
42 l-20 43 -23 -44 -22 -45 -23 40 c-13 21 -32 54 -43 72 l-21 32 39 0 c30 0
38 -3 34 -14z m266 -46 c0 -46 4 -61 18 -69 13 -8 6 -10 -33 -10 -27 0 -44 3
-37 6 7 3 12 26 12 63 0 37 -5 60 -12 63 -7 3 2 6 20 6 l32 1 0 -60z m669 34
c27 -35 26 -59 -4 -89 -49 -50 -145 -21 -145 42 0 69 106 102 149 47z m115 12
c-3 -8 2 -29 12 -47 l16 -33 15 28 c8 16 13 37 10 47 -4 16 0 19 26 19 26 -1
29 -2 15 -11 -9 -5 -29 -36 -44 -69 -15 -33 -29 -60 -33 -60 -3 0 -19 24 -35
53 -16 28 -36 60 -44 70 -14 16 -12 17 26 17 32 0 40 -3 36 -14z m238 2 c8 -7
18 -21 21 -30 6 -16 0 -18 -43 -18 -57 0 -68 -11 -45 -46 16 -25 22 -26 70 -9
20 7 20 6 1 -9 -27 -22 -89 -21 -109 2 -43 49 -10 122 56 122 18 0 40 -6 49
-12z m222 -2 c-3 -8 2 -29 11 -47 13 -24 19 -29 26 -18 12 20 11 53 -3 67 -9
9 -3 12 29 12 35 0 40 -3 36 -19 -3 -10 1 -29 7 -42 12 -22 13 -22 27 -3 8 10
12 29 10 42 -3 18 0 22 21 22 23 0 24 -1 9 -17 -8 -10 -23 -38 -33 -63 -25
-65 -30 -67 -53 -21 -12 22 -24 41 -26 41 -3 0 -12 -18 -21 -40 -9 -22 -19
-40 -23 -40 -3 0 -21 28 -40 63 -19 34 -39 65 -45 69 -6 4 8 8 31 8 32 0 41
-3 37 -14z m344 2 c7 -7 12 -35 12 -64 0 -33 5 -54 13 -57 6 -3 -8 -6 -32 -6
-35 -1 -42 2 -33 11 15 15 16 90 1 105 -6 6 -18 9 -27 6 -10 -4 -13 -2 -8 5 9
16 59 15 74 0z m196 -10 c24 -34 20 -38 -34 -38 -43 0 -50 -3 -50 -19 0 -21
25 -51 41 -51 6 0 20 5 32 12 20 10 21 10 8 -5 -19 -24 -86 -22 -111 3 -46 46
-8 120 61 120 28 0 42 -6 53 -22z m107 10 c1 -7 1 -35 -1 -62 -1 -32 3 -51 11
-57 9 -6 -2 -9 -30 -9 -35 0 -42 3 -33 12 19 19 15 105 -5 117 -15 8 -11 10
20 11 22 0 38 -5 38 -12z m69 -8 c0 -23 -17 -25 -42 -6 -21 16 -13 26 19 26
16 0 23 -6 23 -20z m154 4 c29 -29 20 -44 -28 -44 -53 0 -64 -12 -41 -46 16
-25 22 -26 70 -9 20 7 20 6 1 -9 -11 -9 -37 -16 -57 -16 -71 0 -101 77 -47
123 25 21 81 22 102 1z m220 2 c-3 -8 2 -29 11 -47 13 -24 19 -29 26 -18 12
20 11 53 -3 67 -9 9 -2 12 32 12 33 0 41 -3 33 -11 -9 -9 -8 -19 4 -42 15 -30
16 -30 30 -11 8 10 12 29 10 42 -4 18 0 22 22 22 16 0 21 -3 14 -8 -7 -4 -25
-36 -40 -71 l-29 -64 -26 44 -27 44 -18 -42 c-10 -24 -20 -43 -23 -43 -3 0
-18 24 -34 53 -16 28 -36 60 -44 70 -14 16 -12 17 26 17 32 0 40 -3 36 -14z
m338 -3 c33 -29 22 -43 -32 -43 -43 0 -50 -3 -50 -19 0 -21 25 -51 41 -51 6 0
20 5 32 12 20 10 21 10 8 -5 -19 -24 -86 -22 -111 3 -44 44 -7 120 57 120 20
0 45 -7 55 -17z m426 -43 c2 -36 8 -59 19 -67 13 -10 3 -12 -58 -10 -67 2 -74
4 -77 24 -3 22 30 53 58 53 12 -1 12 -3 -2 -14 -10 -7 -18 -21 -18 -30 0 -11
6 -16 18 -14 23 4 30 108 7 108 -8 0 -18 -7 -23 -17 -6 -10 -16 -14 -27 -9
-14 5 -15 9 -5 22 9 10 27 14 59 12 l46 -3 3 -55z m384 48 c8 -7 18 -21 21
-30 6 -16 0 -18 -43 -18 -57 0 -68 -11 -45 -46 16 -25 22 -26 70 -9 20 7 20 6
1 -9 -26 -21 -85 -20 -108 1 -24 22 -24 77 2 103 23 23 78 27 102 8z m230 0
c-7 -9 -6 -23 5 -48 14 -33 15 -34 29 -16 17 24 18 63 2 69 -7 3 5 6 27 6 35
0 38 -1 23 -12 -9 -8 -31 -49 -48 -93 -30 -77 -66 -124 -96 -124 -20 0 -30 28
-15 43 10 9 15 8 25 -5 12 -17 14 -17 30 0 9 10 16 27 16 38 0 27 -55 141 -72
147 -7 3 9 6 36 6 38 1 46 -2 38 -11z m256 -4 c52 -36 11 -124 -58 -124 -53 0
-80 23 -80 70 0 47 27 70 80 70 20 0 46 -7 58 -16z m120 -44 c4 -63 11 -75 34
-58 26 20 33 81 13 101 -15 16 -14 17 14 17 31 0 31 -1 31 -51 0 -28 5 -59 10
-70 10 -17 7 -19 -20 -19 -17 0 -30 5 -30 12 0 9 -3 9 -12 0 -15 -15 -65 -16
-74 -1 -3 6 -10 38 -13 70 l-7 60 25 -3 c24 -3 26 -7 29 -58z m210 -57 c5 -17
-26 -29 -40 -15 -6 6 -7 15 -3 22 9 14 37 9 43 -7z"/>
<path d="M5350 8781 c-151 -46 -211 -189 -142 -336 16 -33 41 -74 55 -91 15
-18 27 -37 27 -43 0 -5 -13 -31 -30 -57 -27 -43 -28 -48 -13 -59 9 -7 13 -17
10 -23 -5 -7 6 -8 32 -5 22 3 41 1 45 -5 9 -14 -29 -34 -56 -30 -38 5 -30 -19
11 -36 43 -17 78 -10 113 21 14 12 23 13 49 4 41 -14 68 -14 98 2 34 17 27 32
-17 32 -26 0 -37 4 -37 15 0 10 11 15 34 16 32 0 34 2 36 35 1 28 -6 42 -42
80 l-44 45 17 70 c19 84 14 184 -14 247 -19 42 -87 128 -101 126 -3 0 -17 -4
-31 -8z m76 -612 c10 -17 -13 -36 -27 -22 -12 12 -4 33 11 33 5 0 12 -5 16
-11z"/>
<path d="M5771 8765 c-39 -34 -88 -135 -96 -201 -4 -33 0 -85 10 -139 l16 -88
-48 -43 c-38 -33 -45 -45 -36 -55 8 -8 9 -18 2 -31 -5 -10 -6 -18 -2 -19 4 0
22 -2 38 -2 46 -3 40 -32 -7 -32 -51 0 -56 -11 -14 -32 31 -15 43 -15 82 -5
41 11 47 10 74 -10 34 -24 78 -28 115 -8 26 14 29 38 4 32 -24 -6 -59 8 -59
25 0 13 8 15 41 10 32 -4 39 -2 35 9 -3 7 2 17 10 22 13 7 11 16 -16 59 l-32
51 46 68 c58 89 81 170 65 236 -13 55 -71 128 -121 151 -63 29 -74 29 -107 2z
m14 -605 c0 -8 -8 -16 -17 -18 -13 -2 -18 3 -18 18 0 15 5 20 18 18 9 -2 17
-10 17 -18z"/>
<path d="M5556 8394 c-21 -21 -20 -47 2 -67 24 -22 45 -21 65 1 46 51 -19 115
-67 66z"/>
<path d="M5150 8325 c-17 -20 -5 -62 21 -70 24 -8 59 19 59 45 0 37 -55 55
-80 25z"/>
<path d="M5967 8333 c-15 -14 -7 -63 12 -73 39 -20 82 22 61 60 -10 20 -58 28
-73 13z"/>
<path d="M2335 8576 c-285 -110 -505 -232 -706 -394 -108 -87 -284 -273 -359
-380 -63 -90 -156 -259 -147 -268 2 -2 33 3 68 13 93 25 297 23 402 -5 43 -12
97 -30 121 -40 l43 -20 6 102 c11 191 81 394 193 562 75 113 224 268 344 357
53 40 110 82 126 94 16 12 27 22 24 22 -3 0 -54 -19 -115 -43z"/>
<path d="M2407 8460 c-274 -227 -410 -490 -424 -819 -6 -129 -5 -134 13 -126
111 48 180 55 277 30 98 -26 248 -111 339 -193 21 -19 38 -32 38 -29 0 3 -22
41 -48 84 -175 283 -227 439 -227 683 0 124 3 156 23 220 24 75 53 138 93 198
11 17 19 32 17 32 -3 0 -48 -36 -101 -80z"/>
<path d="M1645 8357 c-298 -157 -534 -328 -774 -562 -113 -110 -207 -214 -271
-300 -13 -17 -11 -17 20 4 105 68 197 85 300 52 35 -11 65 -19 66 -18 1 1 14
31 28 67 102 251 369 550 684 764 45 31 79 56 75 56 -4 0 -62 -29 -128 -63z"/>
<path d="M2763 7435 c8 -16 65 -105 125 -197 107 -161 112 -167 154 -178 103
-27 214 -63 290 -95 45 -19 84 -35 86 -35 6 0 -117 98 -393 315 -132 103 -248
195 -259 204 -18 16 -18 15 -3 -14z"/>
<path d="M8760 8602 c105 -73 233 -176 300 -242 222 -220 353 -496 367 -771
l6 -106 59 23 c104 43 185 57 318 58 89 0 144 -5 189 -17 35 -10 67 -15 70
-11 11 10 -88 187 -157 280 -98 133 -174 215 -287 313 -232 200 -490 347 -805
460 -55 20 -76 25 -60 13z"/>
<path d="M8697 8514 c41 -57 92 -176 109 -252 23 -102 15 -314 -16 -427 -36
-135 -109 -285 -245 -504 -4 -7 30 17 76 53 142 112 290 176 405 176 42 -1
102 -16 167 -45 16 -7 17 2 17 98 0 233 -73 446 -217 634 -60 79 -192 208
-269 263 l-49 35 22 -31z"/>
<path d="M9420 8417 c0 -2 30 -24 68 -49 199 -133 445 -367 559 -535 62 -90
153 -263 153 -291 0 -10 6 -12 23 -7 12 4 45 13 72 22 88 25 198 1 284 -64 42
-31 39 -27 -63 97 -244 295 -625 594 -994 779 -56 28 -102 50 -102 48z"/>
<path d="M8144 7227 c-155 -122 -301 -239 -325 -259 l-44 -37 96 39 c53 21
144 52 203 69 59 17 112 33 117 37 5 3 56 76 112 162 135 205 139 212 130 212
-5 -1 -135 -101 -289 -223z"/>
<path d="M4170 7840 c0 -20 53 -69 91 -84 23 -9 43 -15 45 -14 1 2 -29 27 -67
55 -38 28 -69 48 -69 43z"/>
<path d="M6952 7795 c-40 -30 -71 -55 -69 -55 20 0 77 28 100 49 25 23 53 61
45 61 -2 0 -36 -25 -76 -55z"/>
<path d="M5304 7481 c-209 -72 -423 -169 -634 -289 -167 -94 -278 -169 -285
-193 -6 -18 11 -40 91 -120 106 -107 146 -128 48 -26 -124 130 -136 147 -36
56 56 -52 107 -95 112 -97 5 -2 50 26 100 62 213 153 427 258 723 355 l67 23
0 81 c0 92 -31 188 -59 186 -9 0 -66 -17 -127 -38z"/>
<path d="M5727 7476 c-14 -33 -17 -65 -15 -136 l3 -92 120 -42 c287 -101 453
-185 657 -333 48 -35 92 -63 96 -63 5 0 56 44 113 97 107 100 97 83 -25 -44
-39 -40 -68 -75 -65 -77 3 -3 49 39 103 93 82 83 97 102 91 121 -18 56 -464
304 -755 420 -112 45 -274 100 -293 100 -7 0 -20 -20 -30 -44z"/>
<path d="M4380 6942 c0 -4 46 -52 101 -107 56 -55 100 -95 98 -88 -4 11 -188
203 -195 203 -2 0 -4 -3 -4 -8z"/>
<path d="M6719 6863 c-117 -121 -133 -148 -23 -40 103 100 138 118 49 25 -33
-35 -78 -83 -100 -107 l-40 -45 40 31 c22 18 68 60 101 95 49 50 62 70 62 96
0 17 0 32 -1 32 -1 0 -41 -39 -88 -87z"/>
<path d="M4380 6899 c0 -9 24 -37 53 -64 28 -27 74 -69 101 -94 l50 -46 -41
50 c-65 78 -163 171 -163 154z"/>
<path d="M4380 6860 c0 -16 186 -207 194 -199 2 2 -40 51 -95 109 -54 58 -98
98 -99 90z"/>
<path d="M6707 6765 c-54 -58 -95 -105 -90 -105 15 0 196 187 192 199 -2 6
-48 -36 -102 -94z"/>
<path d="M4380 6818 c0 -7 46 -58 101 -113 56 -55 100 -95 98 -89 -7 21 -199
216 -199 202z"/>
<path d="M6710 6728 c-121 -127 -121 -142 -1 -23 93 91 114 117 94 114 -5 -1
-46 -42 -93 -91z"/>
<path d="M4382 6748 c0 -31 11 -47 99 -134 54 -54 99 -95 99 -90 0 4 -43 55
-96 112 -53 57 -93 104 -88 104 5 0 49 -39 98 -87 49 -49 75 -70 58 -48 -17
22 -62 71 -100 109 l-70 68 0 -34z"/>
<path d="M6740 6713 c-109 -113 -144 -156 -75 -92 33 30 80 74 104 96 24 22
42 45 40 52 -2 6 -33 -19 -69 -56z"/>
<path d="M6706 6635 c-54 -58 -96 -108 -94 -110 7 -8 200 193 197 204 -2 6
-48 -36 -103 -94z"/>
<path d="M4380 6464 c0 -278 -7 -264 123 -264 l87 0 0 138 0 138 -105 110
-104 109 -1 -231z"/>
<path d="M6708 6589 l-98 -104 0 -142 0 -143 83 0 c123 0 118 -12 115 265 l-3
229 -97 -105z"/>
<path d="M5490 6599 c-120 -21 -234 -100 -279 -193 -26 -52 -28 -159 -6 -214
50 -119 118 -167 355 -247 183 -61 252 -99 283 -153 55 -94 -13 -220 -137
-253 -59 -16 -162 -6 -221 22 -68 31 -162 129 -210 219 -38 71 -65 94 -86 73
-11 -11 20 -364 34 -380 16 -22 36 -15 57 20 11 17 21 36 23 40 1 4 52 -9 112
-29 101 -34 119 -37 225 -38 132 0 192 15 278 71 158 105 211 279 132 434 -50
98 -157 162 -370 224 -220 63 -287 112 -277 203 12 114 168 175 309 122 77
-29 161 -99 200 -167 35 -59 72 -81 84 -49 7 18 -25 264 -38 289 -13 25 -34
21 -57 -12 l-20 -28 -88 24 c-102 27 -225 36 -303 22z"/>
<path d="M4400 5993 c-21 -27 -22 -34 -17 -173 18 -444 185 -767 527 -1019 72
-54 443 -281 482 -296 8 -3 33 11 56 31 l43 36 -3 85 -3 86 -170 86 c-195 98
-276 153 -393 265 -225 216 -319 435 -338 789 l-7 137 -78 0 c-73 0 -79 -2
-99 -27z"/>
<path d="M6606 5878 c-11 -238 -56 -403 -155 -563 -128 -208 -306 -356 -599
-501 l-144 -70 0 -90 0 -89 41 -34 40 -33 168 97 c92 54 215 130 273 169 121
81 295 248 360 345 95 141 162 310 195 485 22 117 36 345 23 371 -25 49 -38
55 -118 55 l-77 0 -7 -142z"/>
<path d="M4805 3953 c8 -15 17 -47 21 -70 7 -50 20 -54 51 -15 l22 27 1 -32
c0 -51 16 -47 57 12 21 30 44 55 51 55 7 0 10 5 7 10 -3 6 -17 10 -31 10 -16
0 -23 -4 -18 -11 7 -13 -15 -59 -29 -59 -5 0 -7 17 -4 39 l5 39 -62 11 c-87
15 -87 15 -71 -16z m74 -7 c10 -11 10 -20 0 -38 -12 -22 -12 -22 -20 -3 -18
46 -5 71 20 41z"/>
<path d="M6233 3967 c-42 -8 -53 -14 -53 -29 0 -17 2 -17 24 -3 27 18 31 15
40 -38 5 -26 3 -44 -6 -54 -12 -15 -9 -16 26 -10 43 7 56 15 39 25 -10 6 -33
73 -33 96 0 5 14 6 30 3 22 -5 30 -3 30 8 0 17 -19 17 -97 2z"/>
<path d="M6088 3930 c-19 -15 -21 -22 -12 -37 6 -10 25 -22 43 -27 17 -5 31
-15 31 -22 0 -19 -39 -18 -46 1 -9 23 -24 18 -24 -8 0 -21 5 -24 40 -25 32 -2
43 3 56 23 20 30 8 50 -37 60 -16 4 -29 13 -29 21 0 16 26 19 35 4 10 -16 27
-11 23 6 -4 24 -53 26 -80 4z"/>
<path d="M5030 3885 c-17 -30 -36 -55 -41 -55 -5 0 -9 -4 -9 -10 0 -5 12 -10
26 -10 14 0 23 4 20 9 -11 18 5 39 25 34 16 -4 19 -11 15 -29 -5 -18 -2 -24
11 -24 10 0 43 -3 73 -7 49 -5 53 -4 42 10 -8 9 -12 28 -10 44 3 28 3 28 38
-19 19 -26 38 -47 41 -48 3 0 9 26 12 57 3 32 11 59 17 61 18 6 0 22 -27 22
-21 0 -23 -3 -14 -14 7 -8 11 -27 9 -43 l-3 -28 -29 42 c-30 45 -61 62 -79 44
-8 -8 -8 -11 0 -11 17 0 24 -29 17 -67 -5 -27 -11 -33 -27 -31 -16 2 -24 17
-36 62 -9 33 -21 61 -27 63 -7 2 -26 -21 -44 -52z m30 -5 c0 -5 -5 -10 -11
-10 -5 0 -7 5 -4 10 3 6 8 10 11 10 2 0 4 -4 4 -10z"/>
<path d="M6023 3933 c-25 -5 -29 -13 -12 -30 6 -6 9 -28 7 -49 -2 -28 -8 -40
-22 -42 -10 -2 -22 0 -27 5 -11 11 -14 73 -4 95 6 16 3 17 -26 12 -42 -8 -46
-11 -31 -26 7 -7 12 -27 12 -44 0 -58 55 -84 98 -46 15 12 21 33 24 75 3 31 4
56 4 56 -1 -1 -11 -4 -23 -6z"/>
<path d="M5808 3913 c-26 -4 -41 -23 -18 -23 6 0 10 -20 10 -45 0 -33 -5 -47
-17 -52 -23 -9 -55 32 -47 63 9 37 -12 54 -67 54 -46 0 -62 -11 -39 -25 6 -3
10 -26 10 -51 0 -24 -4 -44 -10 -44 -5 0 -10 -4 -10 -10 0 -5 16 -10 35 -10
34 0 46 12 25 25 -15 9 -12 35 4 35 8 0 19 -13 24 -30 l11 -29 83 5 c104 7
108 8 108 35 0 21 -1 21 -18 6 -32 -29 -49 -21 -55 26 -3 23 -2 46 4 52 11 11
12 26 2 24 -5 -1 -20 -4 -35 -6z m-105 -37 c7 -16 -1 -26 -20 -26 -7 0 -13 9
-13 20 0 23 25 27 33 6z"/>
<path d="M5318 3860 c3 -30 0 -55 -7 -64 -9 -11 -2 -15 45 -21 69 -8 107 13
112 62 5 45 -35 73 -103 73 l-52 0 5 -50z m100 18 c7 -7 12 -24 12 -38 0 -32
-17 -50 -47 -50 -21 0 -23 4 -23 50 0 46 2 50 23 50 13 0 28 -5 35 -12z"/>
<path d="M5488 3855 c3 -35 0 -60 -8 -70 -11 -13 -3 -15 59 -15 66 0 71 1 71
22 0 17 -3 19 -12 10 -7 -7 -25 -12 -40 -12 -21 0 -28 5 -28 20 0 18 3 19 20
10 18 -10 20 -8 20 22 0 25 -3 29 -12 20 -18 -18 -28 -15 -28 8 0 22 20 26 52
9 17 -9 19 -8 16 8 -3 14 -14 19 -59 21 l-56 3 5 -56z"/>
<path d="M3517 3433 c-4 -3 -7 -77 -7 -164 l0 -157 25 -6 c75 -19 181 30 214
97 43 89 20 186 -52 220 -35 17 -166 24 -180 10z"/>
<path d="M6584 3168 c-91 -44 -99 -304 -13 -403 26 -30 38 -35 73 -35 47 0 76
20 100 67 36 73 29 218 -15 310 -31 63 -90 88 -145 61z"/>
<path d="M3228 2345 c-17 -38 1 -90 32 -90 22 0 25 5 28 43 5 67 -36 99 -60
47z"/>
<path d="M4597 2364 c-13 -14 -7 -91 8 -104 34 -28 66 23 48 77 -9 27 -41 42
-56 27z"/>
<path d="M4970 2351 c-10 -19 -8 -21 20 -21 25 0 31 4 28 17 -5 26 -35 28 -48
4z"/>
<path d="M5727 2363 c-17 -17 -5 -33 24 -33 24 0 30 3 25 16 -3 9 -6 18 -6 20
0 7 -36 5 -43 -3z"/>
<path d="M6060 2351 c-10 -19 -8 -21 20 -21 25 0 31 4 28 17 -5 26 -35 28 -48
4z"/>
<path d="M6617 2363 c-17 -17 -5 -33 24 -33 24 0 30 3 25 16 -3 9 -6 18 -6 20
0 7 -36 5 -43 -3z"/>
<path d="M7437 2364 c-16 -16 -6 -34 19 -34 19 0 25 5 22 17 -3 19 -29 29 -41
17z"/>
<path d="M7900 2351 c-21 -41 0 -104 34 -99 23 3 33 49 22 94 -8 29 -41 32
-56 5z"/>
</g>
</svg>
